<svg width="86" height="50" viewBox="0 0 86 50" fill="none" xmlns="http://www.w3.org/2000/svg">
<g filter="url(#filter0_d)">
<rect x="4" width="78" height="42" rx="21" fill="#0080FF"/>
<rect x="6" y="2" width="74" height="38" rx="19" stroke="#0080FF" stroke-width="4"/>
</g>
<path d="M12.2383 26V15.3359H16.0688C17.4409 15.3359 18.4834 15.5874 19.1963 16.0903C19.9141 16.5933 20.2729 17.3232 20.2729 18.2803C20.2729 18.832 20.146 19.3032 19.8921 19.6938C19.6382 20.0845 19.2646 20.3726 18.7715 20.5581C19.3281 20.7046 19.7554 20.978 20.0532 21.3784C20.3511 21.7788 20.5 22.2671 20.5 22.8433C20.5 23.8882 20.168 24.6743 19.5039 25.2017C18.8447 25.7241 17.8657 25.9902 16.5669 26H12.2383ZM14.8091 21.4663V24.0225H16.4937C16.9575 24.0225 17.314 23.9175 17.563 23.7075C17.812 23.4927 17.9365 23.1924 17.9365 22.8066C17.9365 21.918 17.4946 21.4712 16.6108 21.4663H14.8091ZM14.8091 19.7817H16.1494C16.7109 19.7769 17.1113 19.6743 17.3506 19.4741C17.5898 19.2739 17.7095 18.9785 17.7095 18.5879C17.7095 18.1387 17.5801 17.8164 17.3213 17.6211C17.0625 17.4209 16.645 17.3208 16.0688 17.3208H14.8091V19.7817ZM31.0352 15.3359V22.3159C31.0352 23.1069 30.8667 23.793 30.5298 24.374C30.1929 24.9502 29.7095 25.3896 29.0796 25.6924C28.4497 25.9951 27.7051 26.1465 26.8457 26.1465C25.5469 26.1465 24.5239 25.8096 23.7769 25.1357C23.0298 24.4619 22.6489 23.5391 22.6343 22.3672V15.3359H25.2197V22.4185C25.249 23.5854 25.791 24.1689 26.8457 24.1689C27.3779 24.1689 27.7808 24.0225 28.0542 23.7295C28.3276 23.4365 28.4644 22.9604 28.4644 22.3013V15.3359H31.0352ZM41.7681 17.3208H38.5674V26H35.9966V17.3208H32.8545V15.3359H41.7681V17.3208ZM52.0981 17.3208H48.8975V26H46.3267V17.3208H43.1846V15.3359H52.0981V17.3208ZM62.7651 20.8877C62.7651 21.9277 62.5723 22.8481 62.1865 23.6489C61.8008 24.4497 61.2515 25.0674 60.5386 25.502C59.8306 25.9316 59.0225 26.1465 58.1143 26.1465C57.2061 26.1465 56.4004 25.939 55.6973 25.5239C54.9941 25.104 54.4448 24.5059 54.0493 23.7295C53.6587 22.9531 53.4536 22.062 53.4341 21.0562V20.4556C53.4341 19.4106 53.6245 18.4902 54.0054 17.6943C54.3911 16.8936 54.9404 16.2759 55.6533 15.8413C56.3711 15.4067 57.1865 15.1895 58.0996 15.1895C59.0029 15.1895 59.8086 15.4043 60.5166 15.834C61.2246 16.2637 61.7739 16.8765 62.1646 17.6724C62.5601 18.4634 62.7603 19.3716 62.7651 20.397V20.8877ZM60.1504 20.4409C60.1504 19.3813 59.9722 18.5781 59.6157 18.0312C59.2642 17.4795 58.7588 17.2036 58.0996 17.2036C56.8105 17.2036 56.1294 18.1704 56.0562 20.104L56.0488 20.8877C56.0488 21.9326 56.2222 22.7358 56.5688 23.2974C56.9155 23.8589 57.4307 24.1396 58.1143 24.1396C58.7637 24.1396 59.2642 23.8638 59.6157 23.312C59.9673 22.7603 60.1455 21.9668 60.1504 20.9316V20.4409ZM73.7471 26H71.1909L67.4116 19.3643V26H64.8408V15.3359H67.4116L71.1836 21.9717V15.3359H73.7471V26Z" fill="#F5F7FA"/>
<defs>
<filter id="filter0_d" x="0" y="0" width="86" height="50" filterUnits="userSpaceOnUse" color-interpolation-filters="sRGB">
<feFlood flood-opacity="0" result="BackgroundImageFix"/>
<feColorMatrix in="SourceAlpha" type="matrix" values="0 0 0 0 0 0 0 0 0 0 0 0 0 0 0 0 0 0 127 0"/>
<feOffset dy="4"/>
<feGaussianBlur stdDeviation="2"/>
<feColorMatrix type="matrix" values="0 0 0 0 0 0 0 0 0 0 0 0 0 0 0 0 0 0 0.25 0"/>
<feBlend mode="normal" in2="BackgroundImageFix" result="effect1_dropShadow"/>
<feBlend mode="normal" in="SourceGraphic" in2="effect1_dropShadow" result="shape"/>
</filter>
</defs>
</svg>
