<?xml version="1.0" standalone="no"?>
<!DOCTYPE svg PUBLIC "-//W3C//DTD SVG 20010904//EN"
 "http://www.w3.org/TR/2001/REC-SVG-20010904/DTD/svg10.dtd">
<svg version="1.0" xmlns="http://www.w3.org/2000/svg"
 width="407.000000pt" height="308.000000pt" viewBox="0 0 407.000000 308.000000"
 preserveAspectRatio="xMidYMid meet">

<g transform="translate(0.000000,308.000000) scale(0.100000,-0.100000)"
fill="#000000" stroke="none">
<path d="M810 2716 c0 -49 17 -69 52 -64 21 3 23 9 24 58 l1 55 -6 -50 c-5
-41 -9 -50 -26 -50 -17 0 -20 8 -23 48 -4 59 -22 62 -22 3z"/>
<path d="M1192 2703 l1 -58 6 44 6 45 28 -42 c15 -23 29 -42 32 -42 3 0 4 26
3 58 -1 56 -1 56 -7 14 l-6 -43 -25 41 c-14 22 -28 40 -32 40 -5 0 -7 -26 -6
-57z"/>
<path d="M933 2733 c-22 -8 -14 -33 13 -43 29 -12 22 -34 -9 -26 -14 3 -17 2
-10 -5 15 -15 47 -7 51 13 2 12 -5 19 -22 24 -14 3 -26 11 -26 16 0 6 11 7 25
4 14 -4 25 -4 25 -2 0 10 -35 23 -47 19z"/>
<path d="M1018 2729 c-21 -12 -24 -49 -6 -67 14 -14 48 -16 48 -4 0 5 -10 8
-21 8 -12 -1 -24 5 -26 12 -3 8 6 12 26 12 17 0 31 4 31 9 0 8 -28 42 -33 41
-1 0 -10 -5 -19 -11z m32 -19 c0 -5 -9 -10 -21 -10 -11 0 -17 5 -14 10 3 6 13
10 21 10 8 0 14 -4 14 -10z"/>
<path d="M1314 2725 c-17 -12 -16 -13 9 -8 15 3 27 1 27 -5 0 -6 -10 -12 -22
-14 -15 -2 -23 -10 -23 -23 0 -15 7 -20 30 -22 29 -1 30 0 27 37 -4 43 -21 55
-48 35z m36 -44 c0 -14 -18 -23 -30 -16 -6 4 -8 11 -5 16 8 12 35 12 35 0z"/>
<path d="M1408 2732 c-14 -3 -18 -13 -17 -45 l2 -42 6 35 c4 22 12 36 24 38
14 3 17 -4 18 -35 l2 -38 6 35 c9 50 41 55 41 6 0 -20 5 -36 11 -36 6 0 9 16
7 38 -3 35 -5 37 -43 42 -22 3 -48 4 -57 2z"/>
<path d="M1546 2727 c-12 -9 -17 -23 -14 -42 2 -24 8 -31 31 -33 15 -2 27 1
27 6 0 5 -10 8 -21 8 -12 -1 -24 5 -26 12 -3 8 6 12 26 12 34 0 39 11 15 34
-19 19 -16 19 -38 3z m34 -17 c0 -5 -9 -10 -21 -10 -11 0 -17 5 -14 10 3 6 13
10 21 10 8 0 14 -4 14 -10z"/>
<path d="M1091 2688 c2 -34 3 -37 6 -13 2 17 12 36 21 43 14 11 13 12 -6 12
-19 0 -22 -5 -21 -42z"/>
<path d="M1793 2500 c0 -30 2 -43 4 -27 2 15 2 39 0 55 -2 15 -4 2 -4 -28z"/>
<path d="M1873 2500 c0 -30 2 -43 4 -27 2 15 2 39 0 55 -2 15 -4 2 -4 -28z"/>
<path d="M814 2491 c0 -21 7 -36 16 -38 10 -3 11 -2 3 4 -6 4 -13 22 -16 38
-4 27 -5 27 -3 -4z"/>
<path d="M891 2504 c0 -11 3 -14 6 -6 3 7 2 16 -1 19 -3 4 -6 -2 -5 -13z"/>
<path d="M1043 2485 c0 -22 2 -30 4 -17 2 12 2 30 0 40 -3 9 -5 -1 -4 -23z"/>
<path d="M1383 2485 c0 -22 2 -30 4 -17 2 12 2 30 0 40 -3 9 -5 -1 -4 -23z"/>
<path d="M1549 2482 c5 -34 6 -35 9 -8 2 16 0 32 -5 37 -5 5 -7 -7 -4 -29z"/>
<path d="M1623 2485 c0 -22 2 -30 4 -17 2 12 2 30 0 40 -3 9 -5 -1 -4 -23z"/>
<path d="M1472 2480 c0 -19 2 -27 5 -17 2 9 2 25 0 35 -3 9 -5 1 -5 -18z"/>
<path d="M961 2484 c0 -11 3 -14 6 -6 3 7 2 16 -1 19 -3 4 -6 -2 -5 -13z"/>
<path d="M1351 2484 c0 -11 3 -14 6 -6 3 7 2 16 -1 19 -3 4 -6 -2 -5 -13z"/>
<path d="M925 2478 c4 -11 0 -18 -12 -21 -15 -4 -16 -5 -1 -6 22 -1 33 18 19
32 -9 9 -11 8 -6 -5z"/>
<path d="M1227 2459 c7 -7 15 -10 18 -7 3 3 -2 9 -12 12 -14 6 -15 5 -6 -5z"/>
<path d="M1837 2459 c7 -7 15 -10 18 -7 3 3 -2 9 -12 12 -14 6 -15 5 -6 -5z"/>
<path d="M810 1996 c0 -49 17 -69 52 -64 21 3 23 9 24 58 l1 55 -6 -50 c-5
-41 -9 -50 -26 -50 -17 0 -20 8 -23 48 -4 59 -22 62 -22 3z"/>
<path d="M1192 1983 l1 -58 6 44 6 45 28 -42 c15 -23 29 -42 32 -42 3 0 4 26
3 58 -1 56 -1 56 -7 14 l-6 -43 -25 41 c-14 22 -28 40 -32 40 -5 0 -7 -26 -6
-57z"/>
<path d="M920 1995 c0 -9 12 -20 26 -25 29 -12 22 -34 -9 -26 -14 3 -17 2 -10
-5 15 -15 47 -7 51 13 2 12 -5 19 -22 24 -14 3 -26 11 -26 16 0 6 11 7 26 4
17 -5 23 -3 19 4 -10 16 -55 12 -55 -5z"/>
<path d="M1007 2003 c-11 -11 -8 -48 5 -61 14 -14 48 -16 48 -4 0 5 -10 8 -21
8 -12 -1 -24 5 -26 12 -3 8 6 12 27 12 25 0 31 3 26 16 -3 9 -6 18 -6 20 0 7
-46 5 -53 -3z m43 -13 c0 -5 -9 -10 -21 -10 -11 0 -17 5 -14 10 3 6 13 10 21
10 8 0 14 -4 14 -10z"/>
<path d="M1091 1968 c2 -34 3 -37 6 -13 2 17 12 36 21 43 14 11 13 12 -6 12
-19 0 -22 -5 -21 -42z"/>
<path d="M1306 2001 c-3 -4 6 -6 19 -3 14 2 25 0 25 -6 0 -6 -10 -12 -22 -14
-15 -2 -23 -10 -23 -23 0 -15 7 -20 30 -22 29 -1 30 0 27 38 -4 33 -8 39 -27
39 -13 0 -26 -4 -29 -9z m44 -40 c0 -14 -18 -23 -30 -16 -6 4 -8 11 -5 16 8
12 35 12 35 0z"/>
<path d="M1392 1968 l1 -43 4 38 c3 29 9 37 24 37 15 0 19 -8 20 -37 l2 -38 6
35 c9 50 41 55 41 6 0 -20 5 -36 10 -36 11 0 13 39 4 64 -5 12 -20 16 -60 16
l-54 0 2 -42z"/>
<path d="M1534 1996 c-12 -32 0 -61 29 -64 15 -2 27 1 27 6 0 5 -10 8 -21 8
-12 -1 -24 5 -26 12 -3 8 6 12 27 12 25 0 31 3 26 16 -3 9 -6 18 -6 20 0 11
-51 2 -56 -10z m46 -6 c0 -5 -9 -10 -21 -10 -11 0 -17 5 -14 10 3 6 13 10 21
10 8 0 14 -4 14 -10z"/>
<path d="M1793 1780 c0 -30 2 -43 4 -27 2 15 2 39 0 55 -2 15 -4 2 -4 -28z"/>
<path d="M1873 1780 c0 -30 2 -43 4 -27 2 15 2 39 0 55 -2 15 -4 2 -4 -28z"/>
<path d="M814 1771 c0 -21 7 -36 16 -38 10 -3 11 -2 3 4 -6 4 -13 22 -16 38
-4 27 -5 27 -3 -4z"/>
<path d="M1043 1765 c0 -22 2 -30 4 -17 2 12 2 30 0 40 -3 9 -5 -1 -4 -23z"/>
<path d="M1383 1765 c0 -22 2 -30 4 -17 2 12 2 30 0 40 -3 9 -5 -1 -4 -23z"/>
<path d="M1623 1765 c0 -22 2 -30 4 -17 2 12 2 30 0 40 -3 9 -5 -1 -4 -23z"/>
<path d="M1472 1760 c0 -19 2 -27 5 -17 2 9 2 25 0 35 -3 9 -5 1 -5 -18z"/>
<path d="M1552 1760 c0 -19 2 -27 5 -17 2 9 2 25 0 35 -3 9 -5 1 -5 -18z"/>
<path d="M961 1764 c0 -11 3 -14 6 -6 3 7 2 16 -1 19 -3 4 -6 -2 -5 -13z"/>
<path d="M1351 1764 c0 -11 3 -14 6 -6 3 7 2 16 -1 19 -3 4 -6 -2 -5 -13z"/>
<path d="M1227 1739 c7 -7 15 -10 18 -7 3 3 -2 9 -12 12 -14 6 -15 5 -6 -5z"/>
<path d="M810 1276 c0 -49 17 -69 52 -64 21 3 23 9 24 58 l1 55 -6 -50 c-5
-41 -9 -50 -26 -50 -17 0 -20 8 -23 48 -4 59 -22 62 -22 3z"/>
<path d="M1192 1263 l1 -58 6 44 6 45 28 -42 c15 -23 29 -42 32 -42 3 0 4 26
3 58 -1 56 -1 56 -7 14 l-6 -43 -25 41 c-14 22 -28 40 -32 40 -5 0 -7 -26 -6
-57z"/>
<path d="M920 1275 c0 -9 12 -20 26 -25 29 -12 22 -34 -9 -26 -14 3 -17 2 -10
-5 15 -15 47 -7 51 13 2 12 -5 19 -22 24 -14 3 -26 11 -26 16 0 6 11 7 26 4
17 -5 23 -3 19 4 -10 16 -55 12 -55 -5z"/>
<path d="M1007 1283 c-11 -11 -8 -48 5 -61 14 -14 48 -16 48 -4 0 5 -10 8 -21
8 -12 -1 -24 5 -26 12 -3 8 6 12 27 12 25 0 31 3 26 16 -3 9 -6 18 -6 20 0 7
-46 5 -53 -3z m43 -13 c0 -5 -9 -10 -21 -10 -11 0 -17 5 -14 10 3 6 13 10 21
10 8 0 14 -4 14 -10z"/>
<path d="M1091 1248 c2 -34 3 -37 6 -13 2 17 12 36 21 43 14 11 13 12 -6 12
-19 0 -22 -5 -21 -42z"/>
<path d="M1306 1281 c-3 -4 6 -6 19 -3 14 2 25 0 25 -6 0 -6 -10 -12 -22 -14
-15 -2 -23 -10 -23 -23 0 -15 7 -20 30 -22 29 -1 30 0 27 38 -4 33 -8 39 -27
39 -13 0 -26 -4 -29 -9z m44 -40 c0 -14 -18 -23 -30 -16 -6 4 -8 11 -5 16 8
12 35 12 35 0z"/>
<path d="M1392 1248 l1 -43 4 38 c3 29 9 37 24 37 15 0 19 -8 20 -37 l2 -38 6
35 c9 50 41 55 41 6 0 -20 5 -36 10 -36 11 0 13 39 4 64 -5 12 -20 16 -60 16
l-54 0 2 -42z"/>
<path d="M1534 1276 c-12 -32 0 -61 29 -64 15 -2 27 1 27 6 0 5 -10 8 -21 8
-12 -1 -24 5 -26 12 -3 8 6 12 27 12 25 0 31 3 26 16 -3 9 -6 18 -6 20 0 11
-51 2 -56 -10z m46 -6 c0 -5 -9 -10 -21 -10 -11 0 -17 5 -14 10 3 6 13 10 21
10 8 0 14 -4 14 -10z"/>
<path d="M1793 1060 c0 -30 2 -43 4 -27 2 15 2 39 0 55 -2 15 -4 2 -4 -28z"/>
<path d="M1873 1060 c0 -30 2 -43 4 -27 2 15 2 39 0 55 -2 15 -4 2 -4 -28z"/>
<path d="M814 1051 c0 -21 7 -36 16 -38 10 -3 11 -2 3 4 -6 4 -13 22 -16 38
-4 27 -5 27 -3 -4z"/>
<path d="M1043 1045 c0 -22 2 -30 4 -17 2 12 2 30 0 40 -3 9 -5 -1 -4 -23z"/>
<path d="M1383 1045 c0 -22 2 -30 4 -17 2 12 2 30 0 40 -3 9 -5 -1 -4 -23z"/>
<path d="M1623 1045 c0 -22 2 -30 4 -17 2 12 2 30 0 40 -3 9 -5 -1 -4 -23z"/>
<path d="M1472 1040 c0 -19 2 -27 5 -17 2 9 2 25 0 35 -3 9 -5 1 -5 -18z"/>
<path d="M1552 1040 c0 -19 2 -27 5 -17 2 9 2 25 0 35 -3 9 -5 1 -5 -18z"/>
<path d="M961 1044 c0 -11 3 -14 6 -6 3 7 2 16 -1 19 -3 4 -6 -2 -5 -13z"/>
<path d="M1351 1044 c0 -11 3 -14 6 -6 3 7 2 16 -1 19 -3 4 -6 -2 -5 -13z"/>
<path d="M1227 1019 c7 -7 15 -10 18 -7 3 3 -2 9 -12 12 -14 6 -15 5 -6 -5z"/>
<path d="M810 556 c0 -49 17 -69 52 -64 21 3 23 9 24 58 l1 55 -6 -50 c-5 -41
-9 -50 -26 -50 -17 0 -20 8 -23 48 -4 59 -22 62 -22 3z"/>
<path d="M1192 543 l1 -58 6 44 6 45 28 -42 c15 -23 29 -42 32 -42 3 0 4 26 3
58 -1 56 -1 56 -7 14 l-6 -43 -25 41 c-14 22 -28 40 -32 40 -5 0 -7 -26 -6
-57z"/>
<path d="M920 555 c0 -9 12 -20 26 -25 29 -12 22 -34 -9 -26 -14 3 -17 2 -10
-5 15 -15 47 -7 51 13 2 12 -5 19 -22 24 -14 3 -26 11 -26 16 0 6 11 7 26 4
17 -5 23 -3 19 4 -10 16 -55 12 -55 -5z"/>
<path d="M1007 563 c-11 -11 -8 -48 5 -61 14 -14 48 -16 48 -4 0 5 -10 8 -21
8 -12 -1 -24 5 -26 12 -3 8 6 12 27 12 25 0 31 3 26 16 -3 9 -6 18 -6 20 0 7
-46 5 -53 -3z m43 -13 c0 -5 -9 -10 -21 -10 -11 0 -17 5 -14 10 3 6 13 10 21
10 8 0 14 -4 14 -10z"/>
<path d="M1091 528 c2 -34 3 -37 6 -13 2 17 12 36 21 43 14 11 13 12 -6 12
-19 0 -22 -5 -21 -42z"/>
<path d="M1306 561 c-3 -4 6 -6 19 -3 14 2 25 0 25 -6 0 -6 -10 -12 -22 -14
-15 -2 -23 -10 -23 -23 0 -15 7 -20 30 -22 29 -1 30 0 27 38 -4 33 -8 39 -27
39 -13 0 -26 -4 -29 -9z m44 -40 c0 -14 -18 -23 -30 -16 -6 4 -8 11 -5 16 8
12 35 12 35 0z"/>
<path d="M1392 528 l1 -43 4 38 c3 29 9 37 24 37 15 0 19 -8 20 -37 l2 -38 6
35 c9 50 41 55 41 6 0 -20 5 -36 10 -36 11 0 13 39 4 64 -5 12 -20 16 -60 16
l-54 0 2 -42z"/>
<path d="M1534 556 c-12 -32 0 -61 29 -64 15 -2 27 1 27 6 0 5 -10 8 -21 8
-12 -1 -24 5 -26 12 -3 8 6 12 27 12 25 0 31 3 26 16 -3 9 -6 18 -6 20 0 11
-51 2 -56 -10z m46 -6 c0 -5 -9 -10 -21 -10 -11 0 -17 5 -14 10 3 6 13 10 21
10 8 0 14 -4 14 -10z"/>
<path d="M1793 340 c0 -30 2 -43 4 -27 2 15 2 39 0 55 -2 15 -4 2 -4 -28z"/>
<path d="M1873 340 c0 -30 2 -43 4 -27 2 15 2 39 0 55 -2 15 -4 2 -4 -28z"/>
<path d="M814 331 c0 -21 7 -36 16 -38 10 -3 11 -2 3 4 -6 4 -13 22 -16 38 -4
27 -5 27 -3 -4z"/>
<path d="M1043 325 c0 -22 2 -30 4 -17 2 12 2 30 0 40 -3 9 -5 -1 -4 -23z"/>
<path d="M1383 325 c0 -22 2 -30 4 -17 2 12 2 30 0 40 -3 9 -5 -1 -4 -23z"/>
<path d="M1623 325 c0 -22 2 -30 4 -17 2 12 2 30 0 40 -3 9 -5 -1 -4 -23z"/>
<path d="M1472 320 c0 -19 2 -27 5 -17 2 9 2 25 0 35 -3 9 -5 1 -5 -18z"/>
<path d="M1552 320 c0 -19 2 -27 5 -17 2 9 2 25 0 35 -3 9 -5 1 -5 -18z"/>
<path d="M961 324 c0 -11 3 -14 6 -6 3 7 2 16 -1 19 -3 4 -6 -2 -5 -13z"/>
<path d="M1351 324 c0 -11 3 -14 6 -6 3 7 2 16 -1 19 -3 4 -6 -2 -5 -13z"/>
<path d="M1227 299 c7 -7 15 -10 18 -7 3 3 -2 9 -12 12 -14 6 -15 5 -6 -5z"/>
</g>
</svg>
