<svg width="78" height="52" viewBox="0 0 78 52" fill="none" xmlns="http://www.w3.org/2000/svg">
<rect x="2" y="2" width="74" height="48" rx="4" stroke="#0080FF" stroke-width="4"/>
<path d="M19.6133 12.5625L25.9609 32.3477L32.2891 12.5625H41.3125V41H34.4375V34.3594L35.1016 20.7656L28.2266 41H23.6953L16.8008 20.7461L17.4648 34.3594V41H10.6094V12.5625H19.6133Z" fill="#0080FF"/>
<path d="M19.6133 12.5625L20.5655 12.257L20.3427 11.5625H19.6133V12.5625ZM25.9609 32.3477L25.0087 32.6531L25.9624 35.6256L26.9134 32.6523L25.9609 32.3477ZM32.2891 12.5625V11.5625H31.559L31.3366 12.2579L32.2891 12.5625ZM41.3125 12.5625H42.3125V11.5625H41.3125V12.5625ZM41.3125 41V42H42.3125V41H41.3125ZM34.4375 41H33.4375V42H34.4375V41ZM34.4375 34.3594L33.4387 34.3106L33.4375 34.335V34.3594H34.4375ZM35.1016 20.7656L36.1004 20.8144L34.1547 20.4439L35.1016 20.7656ZM28.2266 41V42H28.9429L29.1734 41.3217L28.2266 41ZM23.6953 41L22.7487 41.3222L22.9794 42H23.6953V41ZM16.8008 20.7461L17.7474 20.4238L15.802 20.7948L16.8008 20.7461ZM17.4648 34.3594H18.4648V34.335L18.4637 34.3107L17.4648 34.3594ZM17.4648 41V42H18.4648V41H17.4648ZM10.6094 41H9.60938V42H10.6094V41ZM10.6094 12.5625V11.5625H9.60938V12.5625H10.6094ZM18.6611 12.868L25.0087 32.6531L26.9131 32.0422L20.5655 12.257L18.6611 12.868ZM26.9134 32.6523L33.2415 12.8671L31.3366 12.2579L25.0085 32.043L26.9134 32.6523ZM32.2891 13.5625H41.3125V11.5625H32.2891V13.5625ZM40.3125 12.5625V41H42.3125V12.5625H40.3125ZM41.3125 40H34.4375V42H41.3125V40ZM35.4375 41V34.3594H33.4375V41H35.4375ZM35.4363 34.4082L36.1004 20.8144L34.1028 20.7168L33.4387 34.3106L35.4363 34.4082ZM34.1547 20.4439L27.2797 40.6783L29.1734 41.3217L36.0484 21.0873L34.1547 20.4439ZM28.2266 40H23.6953V42H28.2266V40ZM24.642 40.6778L17.7474 20.4238L15.8541 21.0683L22.7487 41.3222L24.642 40.6778ZM15.802 20.7948L16.466 34.4081L18.4637 34.3107L17.7996 20.6974L15.802 20.7948ZM16.4648 34.3594V41H18.4648V34.3594H16.4648ZM17.4648 40H10.6094V42H17.4648V40ZM11.6094 41V12.5625H9.60938V41H11.6094ZM10.6094 13.5625H19.6133V11.5625H10.6094V13.5625Z" fill="#0080FF"/>
<path d="M66.2009 29.5L56.5 40.2535L46.7991 29.5L66.2009 29.5Z" fill="#0080FF" stroke="#0080FF"/>
<rect x="54.5" y="12.5" width="4" height="19" fill="#0080FF" stroke="#0080FF"/>
</svg>
