<svg width="62" height="66" viewBox="0 0 62 66" fill="none" xmlns="http://www.w3.org/2000/svg">
<path d="M5 40L5 52.5L5 65.5" stroke="#0080FF" stroke-width="10"/>
<path d="M18 49V53V65.5" stroke="#0080FF" stroke-width="10"/>
<path d="M31 30V53L31 65.5" stroke="#0080FF" stroke-width="10"/>
<path d="M44 37V53V65.5" stroke="#0080FF" stroke-width="10"/>
<path d="M57 20V53V65.5" stroke="#0080FF" stroke-width="10"/>
<circle cx="5" cy="21" r="5" fill="#01E0CB"/>
<circle cx="18" cy="27" r="5" fill="#01E0CB"/>
<circle cx="31" cy="16" r="5" fill="#01E0CB"/>
<circle cx="44" cy="19" r="5" fill="#01E0CB"/>
<circle cx="57" cy="5" r="5" fill="#01E0CB"/>
<rect x="6.11304" y="19" width="14" height="5" transform="rotate(25 6.11304 19)" fill="#01E0CB"/>
<rect x="31.4619" y="13" width="14" height="5" transform="rotate(17 31.4619 13)" fill="#01E0CB"/>
<rect x="18" y="23.999" width="14" height="5" transform="rotate(-40 18 23.999)" fill="#01E0CB"/>
<rect x="43" y="16.2167" width="17.2771" height="5" transform="rotate(-45 43 16.2167)" fill="#01E0CB"/>
</svg>
