<svg width="71" height="50" viewBox="0 0 71 50" fill="none" xmlns="http://www.w3.org/2000/svg">
<path d="M24.5 47.5V15.5H67.5V47.5H24.5Z" stroke="#0080FF" stroke-width="5"/>
<path d="M3 47.5V2.5H68V47.5H3Z" stroke="#0080FF" stroke-width="5"/>
<line x1="46.5" y1="15" x2="46.5" y2="47" stroke="#0080FF" stroke-width="5"/>
<line x1="46.5" y1="15" x2="46.5" y2="47" stroke="#0080FF" stroke-width="5"/>
<line x1="46.5" y1="15" x2="46.5" y2="47" stroke="#0080FF" stroke-width="5"/>
<line x1="46.5" y1="15" x2="46.5" y2="47" stroke="#0080FF" stroke-width="5"/>
<line x1="46.5" y1="1" x2="46.5" y2="16" stroke="#0080FF" stroke-width="5"/>
<line x1="46.5" y1="1" x2="46.5" y2="16" stroke="#0080FF" stroke-width="5"/>
<line x1="46.5" y1="1" x2="46.5" y2="16" stroke="#0080FF" stroke-width="5"/>
<line x1="46.5" y1="1" x2="46.5" y2="16" stroke="#2FFEEB" stroke-width="5"/>
<line x1="24.5" y1="1" x2="24.5" y2="16" stroke="#0080FF" stroke-width="5"/>
<line x1="24.5" y1="1" x2="24.5" y2="16" stroke="#0080FF" stroke-width="5"/>
<line x1="24.5" y1="1" x2="24.5" y2="16" stroke="#0080FF" stroke-width="5"/>
<line x1="24.5" y1="1" x2="24.5" y2="16" stroke="#2FFEEB" stroke-width="5"/>
<line x1="70.5" y1="32.5" x2="24.5" y2="32.5" stroke="#0080FF" stroke-width="5"/>
<line x1="70.5" y1="32.5" x2="24.5" y2="32.5" stroke="#0080FF" stroke-width="5"/>
<line x1="70.5" y1="32.5" x2="24.5" y2="32.5" stroke="#0080FF" stroke-width="5"/>
<line x1="70.5" y1="32.5" x2="24.5" y2="32.5" stroke="#0080FF" stroke-width="5"/>
<path d="M69.5 33L1.5 33" stroke="#0080FF" stroke-width="5"/>
<path d="M69.5 33L1.5 33" stroke="#0080FF" stroke-width="5"/>
<path d="M69.5 33L1.5 33" stroke="#0080FF" stroke-width="5"/>
<path d="M69.5 33L1.5 33" stroke="#0080FF" stroke-width="5"/>
<line x1="2.15435e-07" y1="2.5" x2="71" y2="2.50001" stroke="#2FFEEB" stroke-width="5"/>
<line x1="2.15435e-07" y1="15.5" x2="71" y2="15.5" stroke="#2FFEEB" stroke-width="5"/>
<line x1="3" y1="4" x2="3" y2="18" stroke="#2FFEEB" stroke-width="6"/>
<line x1="68" y1="4" x2="68" y2="18" stroke="#2FFEEB" stroke-width="6"/>
</svg>
